<?xml version="1.0" encoding="UTF-8" standalone="no"?>
<!-- Created with Inkscape (http://www.inkscape.org/) -->

<svg
   version="1.1"
   id="svg2"
   width="177.67999"
   height="45.360001"
   viewBox="0 0 177.67999 45.360001"
   sodipodi:docname="01_DCR_CMYK_POS.eps"
   xmlns:inkscape="http://www.inkscape.org/namespaces/inkscape"
   xmlns:sodipodi="http://sodipodi.sourceforge.net/DTD/sodipodi-0.dtd"
   xmlns="http://www.w3.org/2000/svg"
   xmlns:svg="http://www.w3.org/2000/svg">
  <defs
     id="defs6" />
  <sodipodi:namedview
     id="namedview4"
     pagecolor="#ffffff"
     bordercolor="#000000"
     borderopacity="0.25"
     inkscape:showpageshadow="2"
     inkscape:pageopacity="0.0"
     inkscape:pagecheckerboard="0"
     inkscape:deskcolor="#d1d1d1" />
  <g
     id="g8"
     inkscape:groupmode="layer"
     inkscape:label="ink_ext_XXXXXX"
     transform="matrix(1.3333333,0,0,-1.3333333,0,45.36)">
    <g
       id="g10"
       transform="scale(0.1)">
      <path
         d="m 103.887,113.184 c -26.0784,0 -47.2229,21.171 -47.2229,47.289 0,26.113 21.1445,47.285 47.2229,47.285 26.082,0 47.222,-21.172 47.222,-47.285 0,-26.118 -21.14,-47.289 -47.222,-47.289 z m 47.222,226.972 V 253.121 C 136.938,260.379 120.898,264.5 103.887,264.5 46.5117,264.5 0,217.926 0,160.473 0,103.016 46.5117,56.4414 103.887,56.4414 c 57.375,0 103.886,46.5746 103.886,104.0316 v 0 179.683 h -56.664"
         style="fill:#bdbcbc;fill-opacity:1;fill-rule:nonzero;stroke:none"
         id="path12" />
      <path
         d="m 355.523,208.004 c -57.378,0 -103.89,-46.574 -103.89,-104.031 V 0 h 56.668 v 103.973 c 0,26.117 21.14,47.289 47.222,47.289 15.653,0 29.52,-7.633 38.11,-19.379 l 45.738,33.488 c -18.902,25.84 -49.41,42.633 -83.848,42.633"
         style="fill:#7b7979;fill-opacity:1;fill-rule:nonzero;stroke:none"
         id="path14" />
      <path
         d="m 224.66,132.348 c -26.078,0 -47.222,21.168 -47.222,47.285 0,26.113 21.144,47.285 47.222,47.285 15.653,0 29.524,-7.633 38.113,-19.379 l 45.735,33.488 c -18.903,25.84 -49.41,42.633 -83.848,42.633 -57.375,0 -103.887,-46.574 -103.887,-104.027 0,-57.453 46.512,-104.0314 103.887,-104.0314 38.426,0 71.949,20.9062 89.926,51.9614 l -49.051,28.402 c -8.172,-14.117 -23.41,-23.617 -40.875,-23.617"
         style="fill:#ed1345;fill-opacity:1;fill-rule:nonzero;stroke:none"
         id="path16" />
      <path
         d="m 177.438,179.633 c 0,20.148 12.609,37.308 30.335,44.113 v 58.422 c -41.507,-6.813 -74.679,-38.176 -84.171,-78.77 16.222,-7.484 27.507,-23.867 27.507,-42.925 0,-13.731 -5.879,-26.055 -15.211,-34.692 9.989,-16.472 24.364,-29.9333 41.563,-38.7419 13.379,13.4379 23.016,30.5589 27.484,49.6639 -16.222,7.485 -27.507,23.867 -27.507,42.93"
         style="fill:#b00d31;fill-opacity:1;fill-rule:nonzero;stroke:none"
         id="path18" />
      <path
         d="m 314.586,127.563 -48.981,28.359 C 256.77,140.625 251.633,122.914 251.633,103.973 V 79.1719 c 26.812,7.2109 49.344,24.8831 62.953,48.3911"
         style="fill:#74081c;fill-opacity:1;fill-rule:nonzero;stroke:none"
         id="path20" />
      <path
         d="m 561.063,195.945 h 3.078 c 15.312,0 26.578,5.188 26.578,21.309 0,17.016 -11.266,21.391 -26.578,21.391 h -3.078 z m 4.046,49.586 c 19.121,0 34.114,-7.617 34.114,-28.515 0,-19.778 -15.395,-28.039 -34.114,-28.039 h -12.312 v 56.554 h 12.312"
         style="fill:#231f20;fill-opacity:1;fill-rule:nonzero;stroke:none"
         id="path22" />
      <path
         d="m 644.781,188.977 h -32.086 v 56.554 h 31.438 v -6.886 h -23.25 v -17.008 h 21.633 v -6.809 h -21.633 v -18.883 h 23.898 v -6.968"
         style="fill:#231f20;fill-opacity:1;fill-rule:nonzero;stroke:none"
         id="path24" />
      <path
         d="m 667.297,218.469 h 4.047 c 9.886,0 15.394,1.945 15.394,10.051 0,7.863 -5.508,10.125 -15.472,10.125 h -3.969 z m 4.781,27.062 c 12.961,0 22.848,-3.156 22.848,-16.933 0,-13.77 -11.184,-17.012 -22.848,-17.012 h -4.781 v -22.609 h -8.266 v 56.554 h 13.047"
         style="fill:#231f20;fill-opacity:1;fill-rule:nonzero;stroke:none"
         id="path26" />
      <path
         d="m 727.531,228.352 c -0.976,2.355 -2.832,7.457 -3.73,10.293 h -0.156 c -0.899,-2.836 -2.754,-7.778 -3.731,-10.293 l -7.129,-18.551 h 22.121 z m 25.117,-39.375 h -9.074 l -5.918,14.257 h -27.379 l -5.839,-14.257 h -8.75 l 24.058,56.554 h 8.43 l 24.472,-56.554"
         style="fill:#231f20;fill-opacity:1;fill-rule:nonzero;stroke:none"
         id="path28" />
      <path
         d="m 771.621,221.063 h 3.887 c 9.961,0 15.637,2.515 15.637,8.996 0,7.211 -5.676,8.586 -15.637,8.586 h -3.887 z m -8.269,24.468 h 14.175 c 13.539,0 21.965,-3.726 21.965,-14.824 0,-7.695 -5.183,-11.672 -12.801,-13.207 v -0.16 c 3.805,-1.301 5.907,-3.735 7.86,-7.781 l 9.558,-20.582 h -9.16 l -8.015,18.07 c -2.52,5.75 -4.618,7.211 -12.891,7.211 h -2.422 v -25.281 h -8.269 v 56.554"
         style="fill:#231f20;fill-opacity:1;fill-rule:nonzero;stroke:none"
         id="path30" />
      <path
         d="m 825.07,188.977 v 49.589 l -17.582,-0.242 v 7.207 h 42.942 v -7.207 l -17.09,0.242 v -49.589 h -8.27"
         style="fill:#231f20;fill-opacity:1;fill-rule:nonzero;stroke:none"
         id="path32" />
      <path
         d="m 888.172,209.23 c 0.965,-2.585 2.996,-8.582 3.961,-12.07 h 0.168 c 1.054,3.488 3.078,9.485 4.051,12.07 l 13.371,36.301 h 13.035 v -56.554 h -7.852 v 37.433 c 0,2.676 0,9.078 0.157,13.367 h -0.157 c -1.297,-3.722 -2.996,-8.425 -3.972,-11.015 l -15.149,-39.785 h -7.859 l -14.992,38.894 c -0.973,2.516 -3.164,8.664 -4.129,11.906 h -0.168 c 0.168,-4.289 0.168,-10.691 0.168,-13.367 v -37.433 h -7.785 v 56.554 h 13.371 l 13.781,-36.301"
         style="fill:#231f20;fill-opacity:1;fill-rule:nonzero;stroke:none"
         id="path34" />
      <path
         d="m 972.645,188.977 h -32.082 v 56.554 H 972 v -6.886 h -23.254 v -17.008 h 21.633 v -6.809 h -21.633 v -18.883 h 23.899 v -6.968"
         style="fill:#231f20;fill-opacity:1;fill-rule:nonzero;stroke:none"
         id="path36" />
      <path
         d="m 1023.99,245.531 h 7.69 v -56.554 h -10.69 l -19.86,36.621 c -2.341,4.375 -5.017,9.644 -6.56,13.293 h -0.156 c 0.234,-3.489 0.402,-11.02 0.402,-15.879 v -34.035 h -7.863 v 56.554 h 12.16 l 19.047,-35.648 c 2.1,-4.047 4.45,-8.75 6.15,-12.645 h 0.16 c -0.24,3.977 -0.48,13.614 -0.48,18.481 v 29.812"
         style="fill:#231f20;fill-opacity:1;fill-rule:nonzero;stroke:none"
         id="path38" />
      <path
         d="m 1058.72,188.977 v 49.589 l -17.58,-0.242 v 7.207 h 42.94 v -7.207 l -17.09,0.242 v -49.589 h -8.27"
         style="fill:#231f20;fill-opacity:1;fill-rule:nonzero;stroke:none"
         id="path40" />
      <path
         d="m 1119.03,217.418 c 0,-13.773 7.46,-22.766 18.72,-22.766 11.01,0 18.55,9.071 18.55,22.602 0,13.941 -7.21,22.769 -18.55,22.769 -11.11,0 -18.72,-9.238 -18.72,-22.605 z m 46.02,0.164 c 0,-18.234 -10.61,-29.574 -27.38,-29.574 -16.54,0 -27.39,11.418 -27.39,29.164 0,17.988 11.02,29.336 28.11,29.336 15.97,0 26.66,-11.508 26.66,-28.926"
         style="fill:#231f20;fill-opacity:1;fill-rule:nonzero;stroke:none"
         id="path42" />
      <path
         d="m 1179.21,188.977 v 56.554 h 29.98 v -6.886 h -21.8 v -17.989 h 20.91 v -6.804 h -20.91 v -24.875 h -8.18"
         style="fill:#231f20;fill-opacity:1;fill-rule:nonzero;stroke:none"
         id="path44" />
      <path
         d="m 592.137,141.797 c -3.321,1.863 -7.375,2.836 -11.992,2.836 -12.637,0 -21.469,-8.996 -21.469,-21.555 0,-13.289 9.23,-21.957 22.035,-21.957 3.969,0 7.617,0.488 11.992,2.434 l 0.567,-7.6175 c -3.321,-1.3789 -8.262,-2.0273 -12.559,-2.0273 -17.824,0 -30.625,10.2928 -30.625,29.1678 0,16.774 12.965,28.524 30.059,28.524 4.535,0 8.832,-0.485 12.718,-2.188 l -0.726,-7.617"
         style="fill:#231f20;fill-opacity:1;fill-rule:nonzero;stroke:none"
         id="path46" />
      <path
         d="m 613.598,101.449 h 23.656 v -6.9724 h -31.926 v 56.5584 h 8.27 v -49.586"
         style="fill:#231f20;fill-opacity:1;fill-rule:nonzero;stroke:none"
         id="path48" />
      <path
         d="m 655.488,94.4766 h -8.265 v 56.5584 h 8.265 V 94.4766"
         style="fill:#231f20;fill-opacity:1;fill-rule:nonzero;stroke:none"
         id="path50" />
      <path
         d="m 709.508,151.035 h 7.695 V 94.4766 h -10.695 l -19.852,36.6254 c -2.347,4.375 -5.023,9.644 -6.562,13.285 h -0.16 c 0.238,-3.485 0.402,-11.016 0.402,-15.875 V 94.4766 h -7.859 v 56.5584 h 12.152 l 19.047,-35.648 c 2.101,-4.055 4.453,-8.75 6.152,-12.645 h 0.168 c -0.246,3.973 -0.488,13.613 -0.488,18.473 v 29.82"
         style="fill:#231f20;fill-opacity:1;fill-rule:nonzero;stroke:none"
         id="path52" />
      <path
         d="m 742.539,94.4766 h -8.262 v 56.5584 h 8.262 V 94.4766"
         style="fill:#231f20;fill-opacity:1;fill-rule:nonzero;stroke:none"
         id="path54" />
      <path
         d="m 798.93,141.797 c -3.325,1.863 -7.375,2.836 -11.992,2.836 -12.637,0 -21.477,-8.996 -21.477,-21.555 0,-13.289 9.238,-21.957 22.043,-21.957 3.965,0 7.613,0.488 11.988,2.434 l 0.571,-7.6175 c -3.325,-1.3789 -8.262,-2.0273 -12.559,-2.0273 -17.824,0 -30.625,10.2928 -30.625,29.1678 0,16.774 12.957,28.524 30.059,28.524 4.531,0 8.828,-0.485 12.71,-2.188 l -0.718,-7.617"
         style="fill:#231f20;fill-opacity:1;fill-rule:nonzero;stroke:none"
         id="path56" />
      <path
         d="m 838.527,133.855 c -0.964,2.348 -2.832,7.458 -3.718,10.29 h -0.168 c -0.887,-2.832 -2.754,-7.774 -3.719,-10.29 l -7.141,-18.554 h 22.129 z m 25.125,-39.3784 h -9.082 l -5.906,14.2614 H 821.27 l -5.829,-14.2614 h -8.75 l 24.063,56.5584 h 8.43 l 24.468,-56.5584"
         style="fill:#231f20;fill-opacity:1;fill-rule:nonzero;stroke:none"
         id="path58" />
      <path
         d="m 883.891,101.449 h 23.648 v -6.9724 h -31.922 v 56.5584 h 8.274 v -49.586"
         style="fill:#231f20;fill-opacity:1;fill-rule:nonzero;stroke:none"
         id="path60" />
      <path
         d="m 948.941,126.566 h 3.887 c 9.961,0 15.637,2.508 15.637,8.993 0,7.207 -5.676,8.586 -15.637,8.586 h -3.887 z m -8.269,24.469 h 14.18 c 13.535,0 21.961,-3.726 21.961,-14.832 0,-7.691 -5.184,-11.664 -12.801,-13.199 v -0.168 c 3.808,-1.293 5.906,-3.727 7.859,-7.773 l 9.563,-20.5864 h -9.161 l -8.019,18.0704 c -2.52,5.754 -4.617,7.215 -12.891,7.215 h -2.422 V 94.4766 h -8.269 v 56.5584"
         style="fill:#231f20;fill-opacity:1;fill-rule:nonzero;stroke:none"
         id="path62" />
      <path
         d="m 1025.48,94.4766 h -32.089 v 56.5584 h 31.439 v -6.89 h -23.26 v -17.012 h 21.64 v -6.809 h -21.64 v -18.875 h 23.91 v -6.9724"
         style="fill:#231f20;fill-opacity:1;fill-rule:nonzero;stroke:none"
         id="path64" />
      <path
         d="m 1065.98,142.852 c -4.05,1.781 -7.37,2.429 -10.54,2.429 -5.98,0 -10.2,-3.324 -10.2,-7.777 0,-3.809 1.7,-6.484 10.69,-10.453 9.8,-4.293 13.94,-9.156 13.94,-16.692 0,-9.886 -7.78,-16.8473 -19.28,-16.8473 -4.79,0 -9.08,0.7188 -13.22,2.4258 l 0.9,7.5315 c 4.53,-2.266 8.27,-3.074 11.75,-3.074 6.89,0 11.51,3.566 11.51,9.074 0,4.859 -2.36,7.539 -10.94,11.344 -10.54,4.777 -13.62,8.996 -13.62,15.878 0,9.075 7.21,15.317 18.07,15.317 4.13,0 7.94,-0.57 11.99,-2.113 l -1.05,-7.043"
         style="fill:#231f20;fill-opacity:1;fill-rule:nonzero;stroke:none"
         id="path66" />
      <path
         d="m 1116.04,94.4766 h -32.09 v 56.5584 h 31.43 v -6.89 h -23.25 v -17.012 h 21.64 v -6.809 h -21.64 v -18.875 h 23.91 v -6.9724"
         style="fill:#231f20;fill-opacity:1;fill-rule:nonzero;stroke:none"
         id="path68" />
      <path
         d="m 1153.73,133.855 c -0.96,2.348 -2.83,7.458 -3.72,10.29 h -0.16 c -0.89,-2.832 -2.76,-7.774 -3.73,-10.29 l -7.13,-18.554 h 22.12 z m 25.13,-39.3784 h -9.08 l -5.91,14.2614 h -27.39 l -5.83,-14.2614 h -8.75 l 24.06,56.5584 h 8.43 l 24.47,-56.5584"
         style="fill:#231f20;fill-opacity:1;fill-rule:nonzero;stroke:none"
         id="path70" />
      <path
         d="m 1194.67,126.566 h 3.88 c 9.97,0 15.65,2.508 15.65,8.993 0,7.207 -5.68,8.586 -15.65,8.586 h -3.88 z m -8.26,24.469 h 14.17 c 13.53,0 21.96,-3.726 21.96,-14.832 0,-7.691 -5.19,-11.664 -12.8,-13.199 v -0.168 c 3.8,-1.293 5.91,-3.727 7.86,-7.773 l 9.56,-20.5864 h -9.15 l -8.03,18.0704 c -2.51,5.754 -4.62,7.215 -12.88,7.215 h -2.43 V 94.4766 h -8.26 v 56.5584"
         style="fill:#231f20;fill-opacity:1;fill-rule:nonzero;stroke:none"
         id="path72" />
      <path
         d="m 1275.61,141.797 c -3.32,1.863 -7.38,2.836 -11.99,2.836 -12.64,0 -21.47,-8.996 -21.47,-21.555 0,-13.289 9.24,-21.957 22.03,-21.957 3.98,0 7.62,0.488 11.99,2.434 l 0.57,-7.6175 c -3.32,-1.3789 -8.26,-2.0273 -12.56,-2.0273 -17.82,0 -30.62,10.2928 -30.62,29.1678 0,16.774 12.97,28.524 30.06,28.524 4.54,0 8.83,-0.485 12.72,-2.188 l -0.73,-7.617"
         style="fill:#231f20;fill-opacity:1;fill-rule:nonzero;stroke:none"
         id="path74" />
      <path
         d="m 1332.62,94.4766 h -8.19 V 120.324 H 1297.3 V 94.4766 h -8.28 v 56.5584 h 8.28 v -23.742 h 27.13 v 23.742 h 8.19 V 94.4766"
         style="fill:#231f20;fill-opacity:1;fill-rule:nonzero;stroke:none"
         id="path76" />
    </g>
  </g>
</svg>
